<?xml version="1.0" encoding="UTF-8"?>
<svg width="45" height="45" version="1.1" xmlns="http://www.w3.org/2000/svg">
    <g fill="#000" stroke="#000" stroke-width="1.5">
        <path d="m9 26c8.5-1.5 21-1.5 27 0l2-12-7 11v-14l-5.5 13.5-3-15-3 15-5.5-14v14.5l-7-11z" stroke-linecap="round"/>
        <path d="m9 26c0 2 1.5 2 2.5 4 1 1.5 1 1 0.5 3.5-1.5 1-1 2.5-1 2.5-1.5 1.5 0 2.5 0 2.5 6.5 1 16.5 1 23 0 0 0 1.5-1 0-2.5 0 0 0.5-1.5-1-2.5-0.5-2.5-0.5-2 0.5-3.5 1-2 2.5-2 2.5-4-8.5-1.5-18.5-1.5-27 0z" stroke-linecap="round"/>
    </g>
</svg> 