<?xml version="1.0" encoding="UTF-8"?>
<svg width="32" height="32" viewBox="0 0 32 32" version="1.1" xmlns="http://www.w3.org/2000/svg">
    <g fill="#1a73e8" stroke="#1a73e8" transform="translate(8,4) scale(1.2)">
        <path d="m8 8c6.5 0.5 10.5 4 10 15h-13c0-4.5 5-3.5 4-11"/>
        <path d="m9 10c0.24 1.5-3 4-4 5-2 1-2 3-3 2 0-0.5 1-1.5 0-1.5-0.5 0 0 0.5-0.5 1-0.5 0-2.5 1-2.5-2s4-7 4-7 1-1 1-2c-0.5-0.5-0.25-1-0.25-1.5 0.5-0.5 1.75 1 1.75 1h1s0.5-1 1.5-1.5c0.5 0 0.5 1.5 0.5 1.5" stroke-linecap="round"/>
    </g>
</svg> 