<?xml version="1.0" encoding="UTF-8"?>
<svg width="45" height="45" version="1.1" xmlns="http://www.w3.org/2000/svg">
    <g fill="#fff" stroke="#000" stroke-linecap="round" stroke-linejoin="round" stroke-width="1.5">
        <path d="m9 36c3.39-0.97 10.11 0.43 13.5-2 3.39 2.43 10.11 1.03 13.5 2 0 0 1.65 0.54 3 2-0.68 0.97-1.65 0.99-3 0.5-3.39-0.97-10.11 0.46-13.5-1-3.39 1.46-10.11 0.03-13.5 1-1.354 0.49-2.323 0.47-3-0.5 1.354-1.94 3-2 3-2z"/>
        <path d="m15 32c2.5 2.5 12.5 2.5 15 0 0.5-1.5 0-2 0-2 0-2.5-2.5-4-2.5-4 5.5-1.5 6-11.5-5-15.5-11 4-10.5 14-5 15.5 0 0-2.5 1.5-2.5 4 0 0-0.5 0.5 0 2z"/>
    </g>
</svg> 